<svg width="64" height="64" fill="none" xmlns="http://www.w3.org/2000/svg"><g clip-path="url(#a)"><path d="m36.206 13.897-3.017-9.143L10.88 0 0 12.343l34.011 17.371 2.195-15.817Z" fill="url(#b)"/><path d="m25.6 37.851-.64-19.017L0 12.343l6.126 36.663 19.474-.183V37.85Z" fill="url(#c)"/><path d="M20.206 37.486 21.394 22.4 39.497 3.84 55.68 6.766 64 27.52l-8.686 8.594-14.171-2.285-8.777 9.234-12.16-5.577Z" fill="url(#d)"/><path d="M39.497 3.84 13.532 26.88l5.028 29.623L40.137 64 64 49.737 39.497 3.84Z" fill="url(#e)"/><path d="M12.251 12.252H51.75v39.497h-39.5V12.25Z" fill="#000"/><path d="M16 44.343h14.811v2.469H16v-2.469Zm-.183-26.971h6.674c3.932 0 6.309 2.285 6.309 5.668v.092c0 3.84-2.926 5.76-6.674 5.76h-2.743v4.937h-3.566V17.372Zm6.491 8.228c1.829 0 2.835-1.097 2.835-2.468v-.092c0-1.646-1.097-2.468-2.926-2.468h-2.743V25.6h2.834Zm7.406 5.851 2.103-2.56c1.463 1.189 3.017 2.012 4.937 2.012 1.463 0 2.377-.549 2.377-1.554v-.092c0-.914-.548-1.371-3.291-2.103-3.292-.823-5.486-1.737-5.486-5.028v-.092c0-3.017 2.377-4.937 5.76-4.937 2.377 0 4.48.732 6.126 2.103l-1.92 2.743c-1.463-1.006-2.926-1.646-4.297-1.646-1.372 0-2.103.64-2.103 1.463v.091c0 1.098.731 1.463 3.566 2.195 3.291.914 5.211 2.103 5.211 4.937v.091c0 3.292-2.469 5.12-6.034 5.12a11.267 11.267 0 0 1-6.949-2.743Z" fill="#fff"/></g><defs><linearGradient id="b" x1=".51" y1="42.831" x2="27.38" y2="7.338" gradientUnits="userSpaceOnUse"><stop offset=".016" stop-color="#765AF8"/><stop offset=".382" stop-color="#B345F1"/><stop offset=".758" stop-color="#FA3293"/><stop offset=".941" stop-color="#FF318C"/></linearGradient><linearGradient id="c" x1="2.496" y1="44.232" x2="29.323" y2="8.796" gradientUnits="userSpaceOnUse"><stop offset=".016" stop-color="#765AF8"/><stop offset=".382" stop-color="#B345F1"/><stop offset=".758" stop-color="#FA3293"/><stop offset=".941" stop-color="#FF318C"/></linearGradient><linearGradient id="d" x1="46.498" y1="42.428" x2="31.336" y2="6.444" gradientUnits="userSpaceOnUse"><stop offset=".183" stop-color="#765AF8"/><stop offset=".238" stop-color="#8655F6"/><stop offset=".345" stop-color="#9F4CF3"/><stop offset=".443" stop-color="#AE47F2"/><stop offset=".522" stop-color="#B345F1"/></linearGradient><linearGradient id="e" x1="57.843" y1="52.424" x2="22.581" y2="25.158" gradientUnits="userSpaceOnUse"><stop offset=".016" stop-color="#765AF8"/><stop offset=".382" stop-color="#B345F1"/></linearGradient><clipPath id="a"><path fill="#fff" d="M0 0h64v64H0z"/></clipPath></defs></svg>