<svg width="56" height="44" fill="none" xmlns="http://www.w3.org/2000/svg"><path fill-rule="evenodd" clip-rule="evenodd" d="m8.632 30.337-2.93 1.052-.157 8.566 10.14-3.641c-3.478-1.149-6.018-3.17-7.053-5.977Z" fill="#FDBD39"/><path fill-rule="evenodd" clip-rule="evenodd" d="M10.165 21.276 0 24.926l5.702 6.463 2.93-1.052c-1.033-2.8-.396-5.965 1.533-9.061Z" fill="#F69833"/><path fill-rule="evenodd" clip-rule="evenodd" d="M27.27 8.915C14.326 13.563 5.98 23.154 8.63 30.337l46.874-16.832c-2.65-7.183-15.291-9.238-28.235-4.59Z" fill="#FECF33"/><path fill-rule="evenodd" clip-rule="evenodd" d="M36.866 34.927C49.81 30.279 58.17 20.73 55.505 13.505L8.63 30.336c2.666 7.226 15.292 9.239 28.235 4.59Z" fill="#EE6723"/><path fill-rule="evenodd" clip-rule="evenodd" d="M55.505 13.505 8.63 30.337c.918 2.487 4.418 3.713 9.33 3.713 4.787 0 10.916-1.164 17.306-3.458 12.944-4.648 22.05-12.173 20.238-17.087Z" fill="#F69833"/><path fill-rule="evenodd" clip-rule="evenodd" d="M46.176 9.791c-4.788 0-10.917 1.165-17.307 3.46C15.926 17.897 6.82 25.422 8.632 30.336l46.873-16.832c-.918-2.488-4.418-3.714-9.33-3.714Z" fill="#FDBD39"/><path fill-rule="evenodd" clip-rule="evenodd" d="M43.587 40.409c-1.38 0-3.414-1.225-6.048-3.64-3.115-2.856-6.684-7.041-10.05-11.782-3.364-4.741-6.13-9.481-7.785-13.347-1.804-4.213-2.061-6.803-.765-7.7a1.756 1.756 0 0 1 1.019-.295c1.055 0 3.11.772 6.91 4.45l.083.08-.011.114c-.026.264-.05.531-.071.793l-.043.52-.373-.37c-4.094-4.055-5.897-4.493-6.482-4.493-.166 0-.3.034-.395.1-.562.388-.598 2.29 1.15 6.374 1.627 3.797 4.352 8.465 7.673 13.145 3.322 4.68 6.836 8.803 9.896 11.609 3.3 3.026 4.787 3.352 5.273 3.352a.704.704 0 0 0 .406-.105c.593-.41.594-2.448-1.357-6.844l-.09-.201.197-.106c.196-.105.385-.21.563-.309l.235-.13.108.243c1.383 3.115 2.676 7.073.98 8.244-.285.198-.63.298-1.023.298Zm0-.48v.24-.24Z" fill="#EE6723"/><path fill-rule="evenodd" clip-rule="evenodd" d="m37.18 34.796-.02.24c-.326 3.98-1.188 8.764-3.435 8.958a1.586 1.586 0 0 1-.139.006c-1.526 0-2.97-2.15-4.29-6.388-1.251-4.01-2.221-9.395-2.733-15.162-.511-5.766-.503-11.235.022-15.4.572-4.538 1.663-6.908 3.24-7.044.046-.004.095-.006.142-.006 1.108 0 2.776 1.232 4.484 6.972l-1.115.211c-.57-1.918-1.192-3.478-1.809-4.55-.57-.991-1.126-1.537-1.563-1.537-.014 0-.029 0-.043.002-.683.059-1.679 1.689-2.234 6.088-.516 4.09-.522 9.477-.018 15.169.505 5.692 1.46 10.996 2.688 14.935.55 1.764 1.152 3.217 1.744 4.204.545.91 1.072 1.41 1.485 1.41l.043-.001c.654-.057 1.886-1.753 2.405-7.72l1.147-.387Z" fill="#EE6723"/></svg>