<svg width="589" height="600" fill="none" xmlns="http://www.w3.org/2000/svg"><path opacity=".4" d="M335.43 246.756c-7.226-4.025-12.411-4.107-15.556-.328-3.23 3.779-4.76 10.187-4.76 19.141v48.471c0 9.201-.85 16.841-2.636 22.92-1.785 6.326-4.76 10.762-8.84 13.391-3.995 2.711-9.436 3.368-16.321 2.136-6.715-1.15-15.131-4.6-25.162-10.187l-4.76-2.711v-38.201l6.036 3.368c7.225 4.026 11.985 4.519 14.365 1.643 2.551-2.875 3.826-8.79 3.826-17.745v-42.719c0-11.173 1.105-19.963 3.4-26.371 2.21-6.49 6.715-10.598 13.431-12.405-6.716-9.284-11.221-18.485-13.431-27.44-2.21-8.954-3.315-18.977-3.315-30.15V106.85c0-8.955-1.275-16.349-3.826-22.017-2.38-5.587-7.225-10.434-14.365-14.46l-6.036-3.367V28.804l4.76 2.712c10.031 5.586 18.447 11.583 25.162 17.909 6.885 6.408 12.326 13.144 16.321 20.374 4.165 7.23 7.14 14.952 8.84 23.25 1.786 8.05 2.636 16.676 2.636 25.877v48.471c0 8.954 1.615 17.169 4.76 24.481 3.23 7.312 8.415 13.062 15.556 17.006l-.085 37.872Z" fill="url(#a)"/><path opacity=".4" d="M153.349 106.357c7.225 4.025 12.41 4.107 15.556.328 3.23-3.779 4.76-10.187 4.76-19.141v-48.47c0-9.202.85-16.842 2.635-22.921 1.785-6.326 4.675-10.762 8.671-13.473 4.165-2.63 9.605-3.286 16.32-2.136 6.886 1.232 15.386 4.682 25.417 10.351l4.76 2.711v38.201l-6.035-3.368c-7.226-4.026-12.071-4.6-14.621-1.725-2.38 2.957-3.57 8.872-3.57 17.91v42.719c0 11.09-1.105 19.963-3.4 26.371-2.211 6.49-6.716 10.597-13.431 12.405 6.715 9.283 11.22 18.484 13.431 27.439 2.21 8.955 3.315 18.977 3.315 30.15v42.72c0 8.954 1.19 16.266 3.57 21.934 2.55 5.669 7.395 10.598 14.621 14.542l6.035 3.368v38.201l-4.76-2.711c-10.031-5.587-18.531-11.666-25.417-17.992-6.715-6.325-12.155-13.062-16.321-20.374-3.995-7.147-6.885-14.869-8.585-23.085-1.785-8.051-2.635-16.677-2.635-25.878v-48.47c0-8.955-1.615-17.17-4.76-24.482-3.231-7.311-8.416-13.062-15.556-17.005v-38.119Z" fill="url(#b)"/><path opacity=".15" d="m359.996 10.566 179.446 100.145-.085 415.776-179.446-100.062.085-415.858Z" fill="url(#c)"/><path d="m326.249 65.034 142.809 79.606v38.201l-142.809-79.606V65.034Z" fill="#587298"/><path opacity=".2" d="m383.373 241.909 135.328 75.499v115.589l-135.328-75.498v-115.59Z" fill="url(#d)"/><path opacity=".15" d="m382.012 153.266 137.368 76.649v13.062l-137.368-76.649v-13.062Zm0 26.289 118.752 66.215v13.063l-118.752-66.216v-13.062Zm0 25.96 100.816 56.193v13.062l-100.816-56.192v-13.063Z" fill="#fff"/><path opacity=".2" d="m359.996 10.566 179.446 100.145v55.7L359.911 66.348l.085-55.782Z" fill="url(#e)"/><path opacity=".2" d="M404.794 63.802c0 8.461-5.101 12.405-11.391 8.872-6.29-3.533-11.391-13.144-11.391-21.606 0-8.462 5.101-12.405 11.391-8.873 6.29 3.533 11.391 13.227 11.391 21.607Z" fill="#fff"/><path opacity=".15" d="M36.637 137.904 589 445.977 588.915 862 36.552 553.926l.085-416.022Z" fill="url(#f)"/><path d="m0 240.43 142.723 79.607v38.201L0 278.714V240.43Z" fill="#EA8C4F"/><path opacity=".15" d="m73.869 345.422 316.899 176.793v13.063l-316.9-176.794v-13.062Zm0 26.289 273.376 152.476v13.062L73.869 384.774v-13.063Zm0 26.042 232.659 129.802v13.062L73.868 410.816v-13.063Z" fill="#fff"/><path opacity=".2" d="m287.742 563.374 278.647 155.433v115.589L287.742 678.963V563.374Z" fill="url(#g)"/><path opacity=".15" d="m308.739 597.96 41.992 23.414v38.201l-41.992-23.414V597.96Z" fill="#fff"/><path opacity=".2" d="m22.016 410.734 231.979 129.391v115.589L22.015 526.241V410.734Z" fill="url(#h)"/><path opacity=".15" d="m45.392 453.371 184.291 102.774v13.062L45.393 466.433v-13.062Zm0 26.289 147.569 82.317v13.063l-147.569-82.4v-12.98Z" fill="#fff"/><path opacity=".2" d="m36.637 137.904 551.598 307.745v56.357L36.637 194.343v-56.439Z" fill="url(#i)"/><path opacity=".2" d="M96.736 199.601c0 8.461-5.1 12.405-11.391 8.872-6.29-3.532-11.39-13.144-11.39-21.606 0-8.462 5.1-12.405 11.39-8.873 6.29 3.533 11.39 13.227 11.39 21.607Z" fill="#fff"/><defs><linearGradient id="a" x1="384.36" y1="17.275" x2="252.145" y2="254.436" gradientUnits="userSpaceOnUse"><stop stop-color="#424C57"/><stop offset=".903" stop-color="#fff" stop-opacity="0"/></linearGradient><linearGradient id="b" x1="303.984" y1="1.461" x2="171.752" y2="238.595" gradientUnits="userSpaceOnUse"><stop stop-color="#414B56"/><stop offset=".903" stop-color="#fff" stop-opacity="0"/></linearGradient><linearGradient id="c" x1="542.816" y1="112.6" x2="379.863" y2="404.718" gradientUnits="userSpaceOnUse"><stop stop-color="#fff"/><stop offset="1" stop-color="#fff" stop-opacity="0"/></linearGradient><linearGradient id="d" x1="476.95" y1="294.051" x2="431.66" y2="375.238" gradientUnits="userSpaceOnUse"><stop stop-color="#fff"/><stop offset="1" stop-color="#fff" stop-opacity="0"/></linearGradient><linearGradient id="e" x1="421.521" y1="11.43" x2="473.002" y2="162.237" gradientUnits="userSpaceOnUse"><stop stop-color="#424C58"/><stop offset="1" stop-color="#fff" stop-opacity="0"/></linearGradient><linearGradient id="f" x1="405.97" y1="343.888" x2="319.657" y2="498.653" gradientUnits="userSpaceOnUse"><stop stop-color="#fff"/><stop offset="1" stop-color="#fff" stop-opacity="0"/></linearGradient><linearGradient id="g" x1="452.987" y1="655.533" x2="407.697" y2="736.721" gradientUnits="userSpaceOnUse"><stop stop-color="#fff"/><stop offset="1" stop-color="#fff" stop-opacity="0"/></linearGradient><linearGradient id="h" x1="163.887" y1="489.835" x2="118.598" y2="571.023" gradientUnits="userSpaceOnUse"><stop stop-color="#434D58"/><stop offset="1" stop-color="#fff" stop-opacity="0"/></linearGradient><linearGradient id="i" x1="173.501" y1="92.495" x2="372.522" y2="441.33" gradientUnits="userSpaceOnUse"><stop stop-color="#546F94"/><stop offset="1" stop-color="#fff" stop-opacity="0"/></linearGradient></defs></svg>